<svg width="358" height="175" viewBox="0 0 358 175" fill="none" xmlns="http://www.w3.org/2000/svg">
<path d="M317.433 66.6665V89.9998L337.059 101.667V54.9999L317.433 66.6665Z" fill="#307FE2"/>
<path d="M297.803 78.3333L278.177 89.9999V113.333L297.803 125V78.3333Z" fill="#307FE2"/>
<path d="M297.802 101.666V125L337.059 101.666L317.433 89.9998L297.802 101.666Z" fill="#41B6E6"/>
<path d="M297.803 43.5386L278.177 55.2052V78.5385L297.803 66.8719V43.5386Z" fill="#FFAD00"/>
<path d="M337.059 20L317.433 31.6667V55L337.059 43.3333V20Z" fill="#FFAD00"/>
<path d="M103.762 97.9518C98.8194 102.762 93.0232 105.166 86.374 105.166C79.7248 105.166 74.2276 103.054 69.8824 98.8291C65.5402 94.6104 63.3691 88.9482 63.3691 81.8425C63.3691 74.7367 65.5809 69.0854 70.0047 64.8885C74.2366 60.7728 79.8576 58.5166 85.6765 58.5978C91.7157 58.5978 96.8325 60.4723 101.027 64.2212C105.221 67.97 107.324 73.1158 107.336 79.6585V86.3691H75.4219C75.6098 87.5875 76.0394 88.753 76.6838 89.7928C77.3283 90.8325 78.1739 91.7243 79.1677 92.4125C81.2517 93.9616 83.7637 94.7796 86.3333 94.7458C90.6241 94.7458 94.1541 93.2618 96.923 90.2938L103.762 97.9518ZM92.0177 71.1838C90.2919 69.712 88.1062 68.9359 85.8667 68.9998C83.4742 68.9917 81.1445 69.788 79.2311 71.2678C78.2605 71.9752 77.4465 72.8867 76.843 73.9421C76.2394 74.9976 75.8601 76.1729 75.7299 77.3905H94.9482C94.6885 74.7087 93.7117 72.6398 92.0177 71.1838Z" fill="#307FE2"/>
<path d="M150.488 80.1626V105.167H138.191V79.8266C138.191 76.2457 137.661 73.6168 136.601 71.9399C135.541 70.263 133.83 69.423 131.469 69.4199C130.301 69.4199 129.144 69.6611 128.067 70.1292C126.99 70.5973 126.016 71.2828 125.2 72.1452C123.389 73.9652 122.483 76.6377 122.483 80.1626V105.167H110.253V59.3493H122.483V64.4826C125.847 60.5657 129.701 58.6088 134.046 58.6119C136.755 58.591 139.397 59.4734 141.579 61.1273C143.744 62.7015 145.494 64.8075 146.67 67.2546C148.331 64.5329 150.68 62.3278 153.464 60.8753C156.113 59.4161 159.066 58.6396 162.07 58.6119C167.227 58.6119 171.381 60.1924 174.53 63.3533C177.68 66.5141 179.255 71.0859 179.255 77.0686V105.167H166.939V79.8266C166.939 72.8857 164.469 69.4168 159.529 69.4199C158.348 69.4107 157.178 69.6474 156.088 70.1157C154.999 70.584 154.012 71.2743 153.188 72.1452C151.391 73.9652 150.491 76.6377 150.488 80.1626Z" fill="#307FE2"/>
<path d="M249.271 59.3491V83.6997C249.271 87.1655 248.375 89.8099 246.585 91.633C245.761 92.5048 244.775 93.1957 243.685 93.6641C242.595 94.1325 241.424 94.3686 240.243 94.3583C235.306 94.3583 232.836 90.891 232.833 83.9564V59.3491H207.849L194.356 74.203V39.8331C193.16 40.5377 182.665 46.8331 182.126 47.1317V105.166H194.356V91.4884L198.346 87.209L209.937 105.166H224.431L206.649 77.5584C211.272 72.5246 215.895 67.4862 220.518 62.4431V86.7097C220.518 92.8075 222.147 97.4088 225.405 100.514C228.663 103.619 232.694 105.174 237.499 105.18C242.303 105.18 246.228 102.97 249.275 98.549V105.166H261.577V59.3491H249.271Z" fill="#307FE2"/>
<path d="M20 47.3417V52.6617V58.915L32.7096 51.355V46.0164V39.8331L20 47.3417Z" fill="#307FE2"/>
<path d="M62.1917 92.1792C61.4656 92.9052 60.5957 93.4608 59.6416 93.8079C58.9323 94.0532 58.1885 94.1762 57.4403 94.1719C56.8522 94.1743 56.2707 94.0444 55.7364 93.7913C55.2021 93.5382 54.7278 93.168 54.3467 92.7065C53.4771 91.7265 53.0423 90.3701 53.0423 88.6372V68.4119H63.632V59.3492H53.0649V46.7493L40.7449 54.0666V59.3492H35.613V68.4119H40.7449V89.2252C40.7449 94.147 42.1973 98.0358 45.1022 100.892C46.2587 102.038 47.588 102.984 49.0382 103.692C51.1522 104.693 53.4561 105.197 55.7826 105.167C61.6708 105.111 65.8152 101.657 67.2556 100.309C65.0357 97.9923 63.3108 95.2232 62.1917 92.1792Z" fill="#307FE2"/>
<path d="M20 66.3822V105.167H32.7096V58.8222L20 66.3822Z" fill="#307FE2"/>
<g clip-path="url(#clip0_4_46)">
<path fill-rule="evenodd" clip-rule="evenodd" d="M112.772 141.228L109.363 127.191C109.268 126.807 109.096 126.446 108.856 126.132C108.616 125.817 108.314 125.556 107.969 125.363C107.623 125.171 107.242 125.052 106.848 125.014C106.455 124.975 106.058 125.018 105.682 125.141L101.992 126.34C101.616 126.461 101.268 126.659 100.972 126.921C100.676 127.183 100.436 127.503 100.269 127.862C100.102 128.22 100.011 128.609 100.001 129.005C99.991 129.4 100.063 129.794 100.212 130.16L105.711 143.521C105.985 144.193 106.504 144.736 107.162 145.042C107.82 145.348 108.57 145.394 109.261 145.17L110.869 144.648C111.559 144.423 112.139 143.946 112.492 143.312C112.845 142.677 112.945 141.933 112.772 141.228ZM113.284 154.809C112.543 155.049 111.747 155.063 110.998 154.851C110.248 154.639 109.578 154.209 109.073 153.617C108.567 153.024 108.248 152.295 108.157 151.521C108.065 150.748 108.205 149.964 108.558 149.27C108.911 148.575 109.462 148.001 110.141 147.62C110.821 147.238 111.598 147.067 112.374 147.127C113.151 147.186 113.893 147.475 114.506 147.956C115.118 148.437 115.575 149.089 115.818 149.829C115.98 150.322 116.042 150.843 116.003 151.36C115.963 151.878 115.821 152.382 115.586 152.845C115.35 153.308 115.026 153.72 114.631 154.057C114.236 154.394 113.778 154.649 113.284 154.809ZM121.474 151.205C126.533 149.561 130.617 143.728 128.585 137.474C126.552 131.224 119.821 128.902 114.762 130.546C114.194 130.73 113.717 131.122 113.426 131.644C113.136 132.166 113.054 132.778 113.197 133.358L113.708 135.459C113.786 135.775 113.928 136.071 114.125 136.329C114.322 136.588 114.571 136.803 114.855 136.961C115.139 137.119 115.452 137.217 115.776 137.248C116.099 137.28 116.426 137.244 116.735 137.144L116.943 137.078C117.443 136.9 117.974 136.824 118.505 136.855C119.035 136.886 119.554 137.023 120.03 137.257C120.507 137.492 120.932 137.82 121.279 138.221C121.627 138.623 121.891 139.09 122.055 139.595C122.219 140.1 122.281 140.633 122.235 141.163C122.19 141.692 122.039 142.207 121.792 142.677C121.544 143.147 121.205 143.562 120.794 143.899C120.383 144.236 119.909 144.487 119.399 144.637L119.192 144.704C118.883 144.805 118.599 144.968 118.356 145.184C118.113 145.4 117.918 145.663 117.781 145.958C117.645 146.253 117.571 146.573 117.564 146.897C117.557 147.222 117.616 147.545 117.739 147.845L118.555 149.85C118.78 150.402 119.207 150.85 119.748 151.101C120.29 151.352 120.907 151.389 121.474 151.205Z" fill="#E31E52"/>
<path fill-rule="evenodd" clip-rule="evenodd" d="M144.297 135.138C146.986 133.698 150.3 133.961 152.545 136.204C154.699 138.362 154.743 141.465 154.743 142.685C154.743 146.14 153.147 149.051 150.109 149.947C146.065 151.186 139.871 150.092 139.871 150.092C139.734 150.077 139.607 150.012 139.515 149.909C139.423 149.806 139.371 149.672 139.371 149.534V130.444C139.371 130.324 139.419 130.208 139.504 130.123C139.59 130.038 139.705 129.99 139.826 129.99H143.619C143.739 129.99 143.855 130.038 143.94 130.123C144.025 130.208 144.073 130.324 144.073 130.444V135.009C144.073 135.035 144.08 135.061 144.093 135.084C144.107 135.106 144.126 135.125 144.148 135.138C144.171 135.151 144.197 135.158 144.223 135.158C144.249 135.158 144.275 135.151 144.297 135.138ZM144.258 146.079C145.424 146.407 147.752 146.532 149.084 145.148V145.152C149.997 144.264 151.066 141.392 148.92 139.246C148.016 138.321 146.534 137.821 144.476 138.68C144.354 138.738 144.251 138.83 144.18 138.945C144.109 139.059 144.071 139.192 144.073 139.327V145.818C144.071 145.876 144.088 145.932 144.122 145.98C144.155 146.027 144.203 146.062 144.258 146.079ZM209.979 130.457V150.202C209.98 150.283 210.012 150.359 210.068 150.416C210.125 150.473 210.202 150.505 210.282 150.505H214.406C214.486 150.505 214.563 150.473 214.62 150.417C214.677 150.36 214.709 150.283 214.71 150.202V130.457C214.71 130.336 214.662 130.221 214.577 130.135C214.492 130.05 214.376 130.002 214.256 130.002H210.43C210.31 130.003 210.195 130.052 210.111 130.137C210.026 130.222 209.979 130.337 209.979 130.457ZM173.14 147.013C172.908 146.981 172.688 146.89 172.501 146.75C172.293 146.567 172.183 146.245 172.16 145.722V134.798C172.16 134.693 172.118 134.592 172.044 134.518C171.97 134.444 171.869 134.402 171.764 134.401H167.875C167.77 134.401 167.67 134.443 167.595 134.517C167.521 134.592 167.479 134.692 167.479 134.798V144.932C167.481 144.947 167.481 144.962 167.479 144.978C167.106 146.297 165.558 146.696 164.344 146.49C162.62 146.2 161.899 144.751 161.962 143.083C161.962 143.025 161.985 135.362 161.989 134.798C161.989 134.692 161.947 134.592 161.873 134.517C161.798 134.443 161.698 134.401 161.592 134.401H157.712C157.608 134.401 157.508 134.443 157.434 134.516C157.36 134.59 157.318 134.689 157.318 134.793C157.318 136.453 157.305 144.434 157.305 144.434C157.305 145.679 157.696 149.713 161.75 150.451C163.657 150.798 165.925 150.186 167.757 148.883C167.774 148.87 167.793 148.861 167.814 148.856C167.834 148.851 167.855 148.85 167.876 148.854C167.897 148.857 167.917 148.865 167.935 148.876C167.952 148.888 167.967 148.903 167.979 148.92C168.421 149.529 169.049 149.977 169.768 150.196C170.838 150.548 172.291 150.406 172.73 150.363L172.741 150.362C172.81 150.355 172.875 150.324 172.924 150.275C172.973 150.226 173.004 150.161 173.011 150.092L173.383 147.362C173.396 147.283 173.379 147.203 173.333 147.137C173.288 147.072 173.218 147.027 173.14 147.013ZM250.934 141.052C250.795 139.273 250.244 137.418 249.116 136.072L249.086 136.035L249.056 136.001C248.592 135.441 247.35 133.945 243.526 133.957C241.959 133.957 240.391 134.063 238.83 134.212C237.938 134.293 237.046 134.385 236.156 134.478C235.579 134.539 235.58 134.888 235.583 135.359C235.583 135.388 235.583 135.417 235.583 135.447V154.292C235.571 154.384 235.578 154.477 235.602 154.566C235.627 154.655 235.669 154.738 235.726 154.811C235.867 154.912 236.041 154.957 236.213 154.935H239.629C239.713 154.959 239.801 154.961 239.886 154.939C239.971 154.918 240.049 154.875 240.111 154.815C240.174 154.755 240.221 154.679 240.245 154.595C240.269 154.511 240.272 154.423 240.251 154.338C240.26 153.243 240.257 152.163 240.254 151.08C240.253 150.536 240.251 149.992 240.251 149.445C240.251 149.416 240.259 149.387 240.275 149.363C240.29 149.338 240.311 149.318 240.338 149.306C240.364 149.293 240.393 149.289 240.422 149.292C240.451 149.296 240.479 149.308 240.5 149.327C241.862 150.512 243.897 150.839 245.645 150.333C247.496 149.802 249.031 148.383 249.913 146.667C250.795 144.951 251.081 142.977 250.934 141.052ZM246.161 143.322C245.771 144.847 245.072 146.019 242.972 146.146C241.922 146.206 240.254 145.612 240.254 144.635V138.79C240.254 138.566 240.278 138.402 240.497 138.304C240.947 138.097 242.156 137.929 243.084 137.958C247.076 138.072 246.365 142.568 246.171 143.322H246.161ZM185.355 141.886C185.023 142.357 185.023 142.517 185.334 142.957L190.838 150.034C190.87 150.08 190.889 150.133 190.893 150.189C190.897 150.245 190.885 150.3 190.858 150.35C190.833 150.4 190.795 150.442 190.747 150.471C190.7 150.5 190.644 150.515 190.589 150.514H186.056C186.006 150.513 185.957 150.501 185.913 150.477C185.869 150.453 185.831 150.419 185.804 150.377L181.064 144.231C181.035 144.193 180.995 144.166 180.95 144.152C180.904 144.138 180.856 144.138 180.81 144.153C180.765 144.167 180.725 144.195 180.697 144.233C180.668 144.27 180.651 144.316 180.649 144.363V150.211C180.649 150.291 180.616 150.368 180.559 150.425C180.502 150.482 180.425 150.514 180.344 150.514H176.252C176.172 150.513 176.096 150.481 176.039 150.424C175.982 150.368 175.95 150.291 175.949 150.211V130.457C175.949 130.396 175.96 130.337 175.983 130.281C176.006 130.225 176.039 130.175 176.081 130.132C176.124 130.089 176.174 130.055 176.23 130.032C176.286 130.01 176.345 129.998 176.406 129.998H180.193C180.313 129.998 180.428 130.046 180.514 130.131C180.599 130.216 180.647 130.332 180.647 130.453V140.828C180.649 140.87 180.663 140.911 180.689 140.945C180.714 140.979 180.749 141.004 180.789 141.017C180.83 141.031 180.872 141.031 180.914 141.019C180.954 141.007 180.99 140.983 181.016 140.95C181.929 139.705 185.077 135.294 185.582 134.573C185.609 134.533 185.646 134.5 185.69 134.477C185.733 134.454 185.781 134.443 185.831 134.443H190.256C190.313 134.441 190.37 134.457 190.418 134.487C190.466 134.517 190.505 134.561 190.528 134.613C190.554 134.663 190.565 134.721 190.56 134.777C190.554 134.834 190.532 134.888 190.497 134.932L185.355 141.886ZM280.337 142.957C280.027 142.517 280.027 142.357 280.359 141.886L285.509 134.932C285.544 134.887 285.565 134.834 285.57 134.777C285.575 134.721 285.566 134.664 285.54 134.613C285.515 134.562 285.476 134.52 285.428 134.489C285.38 134.459 285.326 134.443 285.269 134.443H280.835C280.785 134.442 280.737 134.454 280.694 134.477C280.65 134.5 280.613 134.533 280.586 134.573C280.081 135.294 276.933 139.705 276.02 140.95C275.994 140.984 275.958 141.009 275.917 141.021C275.876 141.034 275.832 141.033 275.792 141.02C275.75 141.006 275.715 140.981 275.69 140.946C275.664 140.912 275.65 140.87 275.649 140.828V130.453C275.649 130.393 275.637 130.334 275.615 130.279C275.591 130.223 275.558 130.173 275.516 130.131C275.474 130.089 275.423 130.056 275.369 130.033C275.313 130.01 275.254 129.998 275.195 129.998H271.4C271.34 129.998 271.28 130.01 271.226 130.033C271.17 130.056 271.12 130.089 271.078 130.131C271.036 130.173 271.002 130.223 270.98 130.279C270.956 130.334 270.945 130.393 270.945 130.453V150.207C270.945 150.287 270.978 150.364 271.035 150.421C271.092 150.478 271.169 150.509 271.25 150.509H275.342C275.422 150.509 275.499 150.477 275.555 150.42C275.612 150.363 275.645 150.287 275.645 150.207V144.363C275.648 144.316 275.666 144.272 275.694 144.235C275.723 144.198 275.762 144.17 275.807 144.156C275.852 144.142 275.9 144.141 275.945 144.155C275.99 144.168 276.03 144.194 276.06 144.231L280.799 150.377C280.827 150.418 280.865 150.453 280.909 150.477C280.953 150.501 281.002 150.513 281.052 150.514H285.586C285.642 150.514 285.697 150.499 285.744 150.47C285.792 150.441 285.83 150.4 285.856 150.35C285.882 150.3 285.894 150.245 285.89 150.189C285.887 150.133 285.866 150.079 285.833 150.034L280.337 142.957ZM207.101 147.01L207.149 147.021C207.224 147.039 207.291 147.084 207.335 147.149C207.378 147.213 207.395 147.291 207.383 147.368L207.008 150.099C207.001 150.167 206.971 150.231 206.923 150.28C206.874 150.328 206.81 150.359 206.742 150.366L206.67 150.374C206.144 150.43 204.522 150.601 203.356 150.047C202.803 149.802 202.326 149.413 201.976 148.92C201.965 148.903 201.952 148.889 201.935 148.877C201.919 148.866 201.901 148.858 201.881 148.854C201.862 148.851 201.842 148.851 201.822 148.855C201.803 148.859 201.785 148.867 201.769 148.879C201.175 149.306 198.587 150.97 195.668 150.431C194.818 150.283 194.021 149.916 193.356 149.366C191.18 147.499 191.035 143.492 193.172 141.496C193.708 141.047 194.315 140.69 194.966 140.437C197.729 139.24 201.484 139.419 201.484 139.419C201.526 138.701 201.393 137.783 199.604 137.622C198.166 137.463 195.508 137.93 194.72 138.069C194.652 138.081 194.598 138.09 194.56 138.097C194.501 138.108 194.439 138.107 194.381 138.094C194.321 138.081 194.265 138.056 194.216 138.021C194.167 137.986 194.125 137.941 194.093 137.89C194.061 137.838 194.04 137.781 194.031 137.721L193.172 135.167C193.162 135.108 193.163 135.047 193.177 134.989C193.19 134.931 193.214 134.876 193.25 134.827C193.284 134.778 193.328 134.737 193.379 134.705C193.43 134.673 193.486 134.652 193.545 134.642C194.363 134.513 196.643 134.188 197.631 134.082C202.685 133.482 204.232 135.147 204.799 135.758L204.8 135.758C204.834 135.796 204.866 135.829 204.893 135.858C206.124 137.236 206.207 139.178 206.195 140.927L206.162 145.492C206.162 146.796 206.607 146.898 207.101 147.01ZM201.227 145.882C201.383 145.722 201.471 145.508 201.472 145.285V142.633C201.472 142.354 200.719 142.436 200.533 142.457C200.51 142.459 200.497 142.461 200.492 142.461C199.223 142.633 198.322 142.869 197.747 143.168C197.017 143.554 196.649 144.137 196.649 144.911C196.639 145.175 196.69 145.437 196.798 145.677C196.906 145.918 197.068 146.13 197.272 146.297C198.807 147.393 200.729 146.411 201.227 145.882ZM232.76 147.021L232.712 147.01C232.22 146.898 231.775 146.796 231.775 145.492L231.809 140.927C231.821 139.178 231.736 137.236 230.507 135.858C230.479 135.829 230.447 135.794 230.411 135.756C229.841 135.145 228.292 133.482 223.245 134.082C222.257 134.188 219.977 134.513 219.159 134.642C219.041 134.663 218.935 134.73 218.865 134.828C218.795 134.926 218.768 135.048 218.788 135.167L219.647 137.721C219.656 137.781 219.677 137.838 219.709 137.89C219.741 137.941 219.782 137.986 219.832 138.021C219.881 138.056 219.937 138.081 219.996 138.094C220.055 138.107 220.116 138.108 220.176 138.097L220.211 138.091C220.775 137.987 223.688 137.455 225.214 137.617C227.003 137.779 227.135 138.697 227.096 139.414C227.096 139.414 223.338 139.236 220.577 140.433C219.927 140.686 219.323 141.044 218.79 141.492C216.655 143.488 216.797 147.495 218.975 149.362C219.639 149.912 220.436 150.279 221.286 150.427C224.207 150.966 226.793 149.302 227.387 148.874C227.402 148.863 227.421 148.855 227.441 148.851C227.459 148.846 227.48 148.846 227.499 148.85C227.519 148.854 227.537 148.862 227.553 148.873C227.57 148.885 227.583 148.899 227.594 148.916C227.944 149.409 228.421 149.798 228.974 150.043C230.14 150.597 231.762 150.425 232.288 150.37L232.361 150.362C232.429 150.355 232.492 150.324 232.541 150.276C232.589 150.227 232.619 150.163 232.626 150.094L233.012 147.368C233.024 147.289 233.003 147.208 232.957 147.144C232.91 147.079 232.839 147.035 232.76 147.021ZM227.094 145.285C227.093 145.508 227.005 145.722 226.849 145.882C226.349 146.411 224.428 147.393 222.894 146.297C222.69 146.13 222.528 145.918 222.42 145.677C222.312 145.437 222.261 145.175 222.272 144.911C222.272 144.137 222.639 143.554 223.371 143.168C223.946 142.869 224.845 142.633 226.115 142.461C226.118 142.461 226.133 142.459 226.154 142.457C226.341 142.436 227.096 142.354 227.096 142.633L227.094 145.285ZM268.046 147.01C268.061 147.014 268.078 147.018 268.094 147.021C268.169 147.038 268.236 147.083 268.28 147.146C268.325 147.209 268.344 147.287 268.334 147.364L267.959 150.094C267.952 150.163 267.922 150.227 267.874 150.276C267.825 150.324 267.761 150.355 267.693 150.362C267.672 150.364 267.647 150.367 267.62 150.37C267.091 150.426 265.47 150.597 264.307 150.043C263.753 149.799 263.277 149.409 262.927 148.916C262.916 148.899 262.903 148.885 262.886 148.874C262.87 148.863 262.852 148.855 262.832 148.851C262.813 148.847 262.793 148.847 262.774 148.851C262.754 148.855 262.736 148.863 262.72 148.874C262.126 149.302 259.538 150.966 256.619 150.427C255.769 150.28 254.972 149.913 254.308 149.362C252.131 147.495 251.986 143.488 254.123 141.492C254.657 141.044 255.26 140.686 255.909 140.433C258.671 139.236 262.427 139.414 262.427 139.414C262.466 138.697 262.336 137.779 260.547 137.617C259.013 137.454 256.081 137.992 255.536 138.092L255.509 138.097C255.449 138.108 255.388 138.107 255.329 138.094C255.27 138.081 255.214 138.056 255.164 138.021C255.115 137.986 255.073 137.941 255.041 137.89C255.008 137.839 254.987 137.781 254.978 137.721L254.119 135.167C254.099 135.048 254.128 134.926 254.198 134.828C254.267 134.73 254.373 134.663 254.492 134.642C255.308 134.513 257.59 134.188 258.576 134.082C263.63 133.482 265.177 135.147 265.744 135.758C265.779 135.795 265.81 135.829 265.838 135.858C267.067 137.236 267.152 139.178 267.14 140.927L267.106 145.492C267.106 146.796 267.552 146.898 268.046 147.01ZM262.18 145.882C262.336 145.722 262.424 145.508 262.425 145.285V142.633C262.425 142.354 261.672 142.436 261.485 142.457C261.464 142.459 261.449 142.461 261.446 142.461C260.174 142.633 259.275 142.869 258.701 143.168C257.968 143.554 257.603 144.137 257.603 144.911C257.592 145.175 257.643 145.437 257.751 145.677C257.859 145.918 258.021 146.13 258.225 146.297C259.76 147.393 261.68 146.411 262.18 145.882Z" fill="#303330"/>
</g>
<path d="M73.1009 147V132.455H76.5739V137.959H76.6449C76.7869 137.627 76.9882 137.308 77.2486 137C77.5137 136.692 77.8499 136.441 78.2571 136.247C78.669 136.048 79.1615 135.949 79.7344 135.949C80.492 135.949 81.1998 136.148 81.858 136.545C82.5208 136.943 83.0559 137.556 83.4631 138.385C83.8703 139.214 84.0739 140.269 84.0739 141.553C84.0739 142.788 83.8774 143.823 83.4844 144.656C83.0961 145.49 82.5705 146.115 81.9077 146.531C81.2495 146.948 80.518 147.156 79.7131 147.156C79.1638 147.156 78.688 147.066 78.2855 146.886C77.883 146.706 77.5445 146.47 77.2699 146.176C77 145.883 76.7917 145.568 76.6449 145.232H76.5384V147H73.1009ZM76.5028 141.545C76.5028 142.133 76.581 142.644 76.7372 143.08C76.8982 143.515 77.1278 143.854 77.4261 144.095C77.7292 144.332 78.0914 144.45 78.5128 144.45C78.9389 144.45 79.3011 144.332 79.5994 144.095C79.8977 143.854 80.1226 143.515 80.2741 143.08C80.4304 142.644 80.5085 142.133 80.5085 141.545C80.5085 140.958 80.4304 140.449 80.2741 140.018C80.1226 139.588 79.8977 139.254 79.5994 139.017C79.3059 138.78 78.9437 138.662 78.5128 138.662C78.0866 138.662 77.7244 138.778 77.4261 139.01C77.1278 139.242 76.8982 139.573 76.7372 140.004C76.581 140.435 76.5028 140.949 76.5028 141.545ZM87.6658 151.091C87.2492 151.091 86.8562 151.058 86.4869 150.991C86.1175 150.93 85.8003 150.847 85.5352 150.743L86.3022 148.222C86.6431 148.335 86.9509 148.402 87.2255 148.42C87.5049 148.439 87.744 148.394 87.9428 148.286C88.1464 148.181 88.3027 147.994 88.4116 147.724L88.5465 147.398L84.6687 136.091H88.305L90.315 143.875H90.4286L92.467 136.091H96.1246L92.0124 148.044C91.8136 148.641 91.5318 149.166 91.1673 149.621C90.8074 150.08 90.341 150.44 89.7681 150.7C89.1999 150.961 88.4992 151.091 87.6658 151.091Z" fill="black"/>
<defs>
<clipPath id="clip0_4_46">
<rect width="186" height="30" fill="white" transform="translate(100 125)"/>
</clipPath>
</defs>
</svg>
