{
    "asset" : {
        "generator" : "Khronos glTF Blender I/O v1.4.40",
        "version" : "2.0"
    },
    "scene" : 0,
    "scenes" : [
        {
            "name" : "Scene",
            "nodes" : [
                0,
                1,
                2,
                3,
                4,
                5,
                6,
                7
            ]
        }
    ],
    "nodes" : [
        {
            "name" : "Light",
            "rotation" : [
                0.16907575726509094,
                0.7558803558349609,
                -0.27217137813568115,
                0.570947527885437
            ],
            "translation" : [
                4.076245307922363,
                5.903861999511719,
                -1.0054539442062378
            ]
        },
        {
            "name" : "Camera",
            "rotation" : [
                0.483536034822464,
                0.33687159419059753,
                -0.20870360732078552,
                0.7804827094078064
            ],
            "translation" : [
                7.358891487121582,
                4.958309173583984,
                6.925790786743164
            ]
        },
        {
            "mesh" : 0,
            "name" : "Cube",
            "scale" : [
                0.20301322638988495,
                0.18415579199790955,
                0.20301322638988495
            ],
            "translation" : [
                -0.000478586764074862,
                0.13003413379192352,
                -1.03903067111969
            ]
        },
        {
            "mesh" : 1,
            "name" : "Cube.001",
            "scale" : [
                0.20301322638988495,
                0.18415579199790955,
                0.20301322638988495
            ],
            "translation" : [
                -0.000478586764074862,
                0.13003413379192352,
                1.0483661890029907
            ]
        },
        {
            "mesh" : 2,
            "name" : "Cube.002",
            "scale" : [
                0.20301322638988495,
                0.18415579199790955,
                0.6375662684440613
            ],
            "translation" : [
                -0.000478586764074862,
                0.13003413379192352,
                0.00011014938354492188
            ]
        },
        {
            "mesh" : 3,
            "name" : "Cylinder",
            "rotation" : [
                0,
                0,
                -0.7069956660270691,
                0.7072178721427917
            ],
            "scale" : [
                0.6004217267036438,
                0.2026122510433197,
                0.600421667098999
            ],
            "translation" : [
                0,
                0.6562994122505188,
                0.6289536356925964
            ]
        },
        {
            "mesh" : 4,
            "name" : "Cube.003",
            "scale" : [
                -0.20165477693080902,
                0.38966456055641174,
                0.46261703968048096
            ],
            "translation" : [
                0,
                0.899311363697052,
                -0.7823939323425293
            ]
        },
        {
            "mesh" : 5,
            "name" : "Cylinder.001",
            "rotation" : [
                0,
                0,
                0.7071408629417419,
                0.7070727944374084
            ],
            "scale" : [
                1.1878681182861328,
                0.1991301029920578,
                1.251904010772705
            ],
            "translation" : [
                0,
                -0.06076845899224281,
                -0.003798028687015176
            ]
        }
    ],
    "materials" : [
        {
            "doubleSided" : true,
            "name" : "Material.002",
            "pbrMetallicRoughness" : {
                "baseColorFactor" : [
                    0.029556844383478165,
                    0.30946895480155945,
                    0.7230553030967712,
                    1
                ],
                "metallicFactor" : 0,
                "roughnessFactor" : 0.5
            }
        },
        {
            "doubleSided" : true,
            "name" : "Material.001",
            "pbrMetallicRoughness" : {
                "baseColorFactor" : [
                    0.08650047332048416,
                    0.48808538913726807,
                    0.5906189680099487,
                    1
                ],
                "metallicFactor" : 0,
                "roughnessFactor" : 0.5
            }
        },
        {
            "doubleSided" : true,
            "name" : "Material.004",
            "pbrMetallicRoughness" : {
                "baseColorFactor" : [
                    1,
                    0.6724432706832886,
                    0.16826944053173065,
                    1
                ],
                "metallicFactor" : 0,
                "roughnessFactor" : 0.5
            }
        },
        {
            "doubleSided" : true,
            "name" : "Material.003",
            "pbrMetallicRoughness" : {
                "baseColorFactor" : [
                    1,
                    0.16826944053173065,
                    0.28314879536628723,
                    1
                ],
                "metallicFactor" : 0,
                "roughnessFactor" : 0.5
            }
        }
    ],
    "meshes" : [
        {
            "name" : "Cube.001",
            "primitives" : [
                {
                    "attributes" : {
                        "POSITION" : 0,
                        "NORMAL" : 1,
                        "TEXCOORD_0" : 2
                    },
                    "indices" : 3,
                    "material" : 0
                }
            ]
        },
        {
            "name" : "Cube.002",
            "primitives" : [
                {
                    "attributes" : {
                        "POSITION" : 4,
                        "NORMAL" : 5,
                        "TEXCOORD_0" : 6
                    },
                    "indices" : 3,
                    "material" : 0
                }
            ]
        },
        {
            "name" : "Cube.003",
            "primitives" : [
                {
                    "attributes" : {
                        "POSITION" : 7,
                        "NORMAL" : 8,
                        "TEXCOORD_0" : 9
                    },
                    "indices" : 10,
                    "material" : 0
                }
            ]
        },
        {
            "name" : "Cylinder.001",
            "primitives" : [
                {
                    "attributes" : {
                        "POSITION" : 11,
                        "NORMAL" : 12,
                        "TEXCOORD_0" : 13
                    },
                    "indices" : 14,
                    "material" : 1
                }
            ]
        },
        {
            "name" : "Cube.004",
            "primitives" : [
                {
                    "attributes" : {
                        "POSITION" : 15,
                        "NORMAL" : 16,
                        "TEXCOORD_0" : 17
                    },
                    "indices" : 18,
                    "material" : 2
                }
            ]
        },
        {
            "name" : "Cylinder.002",
            "primitives" : [
                {
                    "attributes" : {
                        "POSITION" : 19,
                        "NORMAL" : 20,
                        "TEXCOORD_0" : 21
                    },
                    "indices" : 22,
                    "material" : 3
                }
            ]
        }
    ],
    "accessors" : [
        {
            "bufferView" : 0,
            "componentType" : 5126,
            "count" : 554,
            "max" : [
                6.296527862548828,
                1,
                6.329061508178711
            ],
            "min" : [
                4.266937255859375,
                -1,
                4.2994704246521
            ],
            "type" : "VEC3"
        },
        {
            "bufferView" : 1,
            "componentType" : 5126,
            "count" : 554,
            "type" : "VEC3"
        },
        {
            "bufferView" : 2,
            "componentType" : 5126,
            "count" : 554,
            "type" : "VEC2"
        },
        {
            "bufferView" : 3,
            "componentType" : 5123,
            "count" : 2916,
            "type" : "SCALAR"
        },
        {
            "bufferView" : 4,
            "componentType" : 5126,
            "count" : 554,
            "max" : [
                -3.983745574951172,
                1,
                -4.145420551300049
            ],
            "min" : [
                -6.013336181640625,
                -1,
                -6.17501163482666
            ],
            "type" : "VEC3"
        },
        {
            "bufferView" : 5,
            "componentType" : 5126,
            "count" : 554,
            "type" : "VEC3"
        },
        {
            "bufferView" : 6,
            "componentType" : 5126,
            "count" : 554,
            "type" : "VEC2"
        },
        {
            "bufferView" : 7,
            "componentType" : 5126,
            "count" : 6144,
            "max" : [
                3.3081979751586914,
                1.0000004768371582,
                0.36739489436149597
            ],
            "min" : [
                -2.9801130294799805,
                -1,
                -0.3037780225276947
            ],
            "type" : "VEC3"
        },
        {
            "bufferView" : 8,
            "componentType" : 5126,
            "count" : 6144,
            "type" : "VEC3"
        },
        {
            "bufferView" : 9,
            "componentType" : 5126,
            "count" : 6144,
            "type" : "VEC2"
        },
        {
            "bufferView" : 10,
            "componentType" : 5123,
            "count" : 9204,
            "type" : "SCALAR"
        },
        {
            "bufferView" : 11,
            "componentType" : 5126,
            "count" : 818,
            "max" : [
                0.2295747995376587,
                0.09846711903810501,
                -0.6765987873077393
            ],
            "min" : [
                -0.9984164237976074,
                -6.043592929840088,
                -1.3884449005126953
            ],
            "type" : "VEC3"
        },
        {
            "bufferView" : 12,
            "componentType" : 5126,
            "count" : 818,
            "type" : "VEC3"
        },
        {
            "bufferView" : 13,
            "componentType" : 5126,
            "count" : 818,
            "type" : "VEC2"
        },
        {
            "bufferView" : 14,
            "componentType" : 5123,
            "count" : 4320,
            "type" : "SCALAR"
        },
        {
            "bufferView" : 15,
            "componentType" : 5126,
            "count" : 228,
            "max" : [
                -1.4130104780197144,
                0.9409468173980713,
                2.2030627727508545
            ],
            "min" : [
                -6.347657203674316,
                -1.0000004768371582,
                1.337620735168457
            ],
            "type" : "VEC3"
        },
        {
            "bufferView" : 16,
            "componentType" : 5126,
            "count" : 228,
            "type" : "VEC3"
        },
        {
            "bufferView" : 17,
            "componentType" : 5126,
            "count" : 228,
            "type" : "VEC2"
        },
        {
            "bufferView" : 18,
            "componentType" : 5123,
            "count" : 960,
            "type" : "SCALAR"
        },
        {
            "bufferView" : 19,
            "componentType" : 5126,
            "count" : 21780,
            "max" : [
                -0.16306760907173157,
                6.132309913635254,
                0.2035016268491745
            ],
            "min" : [
                -0.999343752861023,
                -6.502648830413818,
                -0.16382698714733124
            ],
            "type" : "VEC3"
        },
        {
            "bufferView" : 20,
            "componentType" : 5126,
            "count" : 21780,
            "type" : "VEC3"
        },
        {
            "bufferView" : 21,
            "componentType" : 5126,
            "count" : 21780,
            "type" : "VEC2"
        },
        {
            "bufferView" : 22,
            "componentType" : 5123,
            "count" : 32748,
            "type" : "SCALAR"
        }
    ],
    "bufferViews" : [
        {
            "buffer" : 0,
            "byteLength" : 6648,
            "byteOffset" : 0
        },
        {
            "buffer" : 0,
            "byteLength" : 6648,
            "byteOffset" : 6648
        },
        {
            "buffer" : 0,
            "byteLength" : 4432,
            "byteOffset" : 13296
        },
        {
            "buffer" : 0,
            "byteLength" : 5832,
            "byteOffset" : 17728
        },
        {
            "buffer" : 0,
            "byteLength" : 6648,
            "byteOffset" : 23560
        },
        {
            "buffer" : 0,
            "byteLength" : 6648,
            "byteOffset" : 30208
        },
        {
            "buffer" : 0,
            "byteLength" : 4432,
            "byteOffset" : 36856
        },
        {
            "buffer" : 0,
            "byteLength" : 73728,
            "byteOffset" : 41288
        },
        {
            "buffer" : 0,
            "byteLength" : 73728,
            "byteOffset" : 115016
        },
        {
            "buffer" : 0,
            "byteLength" : 49152,
            "byteOffset" : 188744
        },
        {
            "buffer" : 0,
            "byteLength" : 18408,
            "byteOffset" : 237896
        },
        {
            "buffer" : 0,
            "byteLength" : 9816,
            "byteOffset" : 256304
        },
        {
            "buffer" : 0,
            "byteLength" : 9816,
            "byteOffset" : 266120
        },
        {
            "buffer" : 0,
            "byteLength" : 6544,
            "byteOffset" : 275936
        },
        {
            "buffer" : 0,
            "byteLength" : 8640,
            "byteOffset" : 282480
        },
        {
            "buffer" : 0,
            "byteLength" : 2736,
            "byteOffset" : 291120
        },
        {
            "buffer" : 0,
            "byteLength" : 2736,
            "byteOffset" : 293856
        },
        {
            "buffer" : 0,
            "byteLength" : 1824,
            "byteOffset" : 296592
        },
        {
            "buffer" : 0,
            "byteLength" : 1920,
            "byteOffset" : 298416
        },
        {
            "buffer" : 0,
            "byteLength" : 261360,
            "byteOffset" : 300336
        },
        {
            "buffer" : 0,
            "byteLength" : 261360,
            "byteOffset" : 561696
        },
        {
            "buffer" : 0,
            "byteLength" : 174240,
            "byteOffset" : 823056
        },
        {
            "buffer" : 0,
            "byteLength" : 65496,
            "byteOffset" : 997296
        }
    ],
    "buffers" : [
        {
            "byteLength" : 1062792,
            "uri" : "data:application/octet-stream;base64,"
        }
    ]
}
