{
   "accessors" : [
      {
         "bufferView" : 2,
         "byteOffset" : 0,
         "componentType" : 5126,
         "count" : 4044,
         "max" : [ 1, 1, 1, 1 ],
         "min" : [ 0, 0.006584956776350737, 0, 1 ],
         "name" : "accessor_color_m0-PolyPaper21_-374480",
         "type" : "VEC4"
      },
      {
         "bufferView" : 2,
         "byteOffset" : 64704,
         "componentType" : 5126,
         "count" : 36,
         "max" : [ 1, 1, 1, 1 ],
         "min" : [ 1, 1, 1, 1 ],
         "name" : "accessor_color_m1-PolyGlass24_-374486",
         "type" : "VEC4"
      },
      {
         "bufferView" : 2,
         "byteOffset" : 65280,
         "componentType" : 5126,
         "count" : 1004,
         "max" : [ 1, 1, 1, 1 ],
         "min" : [ 0.006584956776350737, 0.006584956776350737, 0.006584956776350737, 1 ],
         "name" : "accessor_color_m2-PolyPaper16_-374492",
         "type" : "VEC4"
      },
      {
         "bufferView" : 0,
         "byteOffset" : 0,
         "componentType" : 5123,
         "count" : 6312,
         "max" : [ 4043 ],
         "min" : [ 0 ],
         "name" : "accessor_indices_0_m0-PolyPaper21_-374480",
         "type" : "SCALAR"
      },
      {
         "bufferView" : 0,
         "byteOffset" : 12624,
         "componentType" : 5123,
         "count" : 54,
         "max" : [ 35 ],
         "min" : [ 0 ],
         "name" : "accessor_indices_0_m1-PolyGlass24_-374486",
         "type" : "SCALAR"
      },
      {
         "bufferView" : 0,
         "byteOffset" : 12732,
         "componentType" : 5123,
         "count" : 1572,
         "max" : [ 1003 ],
         "min" : [ 0 ],
         "name" : "accessor_indices_0_m2-PolyPaper16_-374492",
         "type" : "SCALAR"
      },
      {
         "bufferView" : 1,
         "byteOffset" : 48528,
         "componentType" : 5126,
         "count" : 4044,
         "max" : [ 1, 1, 1 ],
         "min" : [ -1, -1, -1 ],
         "name" : "accessor_normal_m0-PolyPaper21_-374480",
         "type" : "VEC3"
      },
      {
         "bufferView" : 1,
         "byteOffset" : 97488,
         "componentType" : 5126,
         "count" : 36,
         "max" : [ 1, 1, 1 ],
         "min" : [ -1, -1, -1 ],
         "name" : "accessor_normal_m1-PolyGlass24_-374486",
         "type" : "VEC3"
      },
      {
         "bufferView" : 1,
         "byteOffset" : 109968,
         "componentType" : 5126,
         "count" : 1004,
         "max" : [ 1, 1, 1 ],
         "min" : [ -1, -1, -1 ],
         "name" : "accessor_normal_m2-PolyPaper16_-374492",
         "type" : "VEC3"
      },
      {
         "bufferView" : 1,
         "byteOffset" : 0,
         "componentType" : 5126,
         "count" : 4044,
         "max" : [ 1.109939, 1.76005, 0.3976946 ],
         "min" : [ -0.785023, 0.0300144, -0.4300917 ],
         "name" : "accessor_position_m0-PolyPaper21_-374480",
         "type" : "VEC3"
      },
      {
         "bufferView" : 1,
         "byteOffset" : 97056,
         "componentType" : 5126,
         "count" : 36,
         "max" : [ 1.148368, 1.729021, 0.3900273 ],
         "min" : [ -0.7099829, 0.030036, -0.4299755 ],
         "name" : "accessor_position_m1-PolyGlass24_-374486",
         "type" : "VEC3"
      },
      {
         "bufferView" : 1,
         "byteOffset" : 97920,
         "componentType" : 5126,
         "count" : 1004,
         "max" : [ 1.150001, 1.766474, 0.397707 ],
         "min" : [ -0.7860072, -0.03093025, -0.4300051 ],
         "name" : "accessor_position_m2-PolyPaper16_-374492",
         "type" : "VEC3"
      }
   ],
   "asset" : {
      "copyright" : "Unknown",
      "generator" : "glTF 1-to-2 Upgrader for Google Blocks",
      "version" : "2.0"
   },
   "bufferViews" : [
      {
         "buffer" : 0,
         "byteLength" : 15876,
         "byteOffset" : 0,
         "name" : "ushortBufferView",
         "target" : 34963
      },
      {
         "buffer" : 0,
         "byteLength" : 122016,
         "byteOffset" : 15876,
         "byteStride" : 12,
         "name" : "vec3BufferView",
         "target" : 34962
      },
      {
         "buffer" : 0,
         "byteLength" : 81344,
         "byteOffset" : 137892,
         "byteStride" : 16,
         "name" : "vec4BufferView",
         "target" : 34962
      }
   ],
   "buffers" : [
      {
         "byteLength" : 219236,
         "name" : "model",
         "uri" : "model.bin"
      }
   ],
   "materials" : [
      {
         "alphaMode" : "OPAQUE",
         "doubleSided" : false,
         "name" : "BlocksPaper",
         "pbrMetallicRoughness" : {
            "baseColorFactor" : [ 1, 1, 1, 1 ],
            "metallicFactor" : 0,
            "roughnessFactor" : 0.6
         }
      },
      {
         "alphaMode" : "BLEND",
         "doubleSided" : false,
         "name" : "BlocksGlass",
         "pbrMetallicRoughness" : {
            "baseColorFactor" : [ 0.2, 0.2, 1, 0.3 ],
            "metallicFactor" : 1,
            "roughnessFactor" : 0.4
         }
      },
      {
         "alphaMode" : "OPAQUE",
         "doubleSided" : true,
         "name" : "BlocksGem",
         "pbrMetallicRoughness" : {
            "baseColorFactor" : [ 1, 0.4, 1, 1 ],
            "metallicFactor" : 0,
            "roughnessFactor" : 0.1
         }
      }
   ],
   "meshes" : [
      {
         "name" : "mesh_m0-PolyPaper21_-374480",
         "primitives" : [
            {
               "attributes" : {
                  "COLOR_0" : 0,
                  "NORMAL" : 6,
                  "POSITION" : 9
               },
               "indices" : 3,
               "material" : 0,
               "mode" : 4
            }
         ]
      },
      {
         "name" : "mesh_m1-PolyGlass24_-374486",
         "primitives" : [
            {
               "attributes" : {
                  "COLOR_0" : 1,
                  "NORMAL" : 7,
                  "POSITION" : 10
               },
               "indices" : 4,
               "material" : 1,
               "mode" : 4
            }
         ]
      },
      {
         "name" : "mesh_m2-PolyPaper16_-374492",
         "primitives" : [
            {
               "attributes" : {
                  "COLOR_0" : 2,
                  "NORMAL" : 8,
                  "POSITION" : 11
               },
               "indices" : 5,
               "material" : 0,
               "mode" : 4
            }
         ]
      }
   ],
   "nodes" : [
      {
         "mesh" : 0,
         "name" : "node_MeshObject-1148298240-PolyPaper21"
      },
      {
         "mesh" : 2,
         "name" : "node_MeshObject-1421215744-PolyPaper16"
      },
      {
         "mesh" : 1,
         "name" : "node_MeshObject-1993294848-PolyGlass24"
      }
   ],
   "scene" : 0,
   "scenes" : [
      {
         "extras" : {},
         "name" : "defaultScene",
         "nodes" : [ 0, 2, 1 ]
      }
   ]
}
